<svg width="32" height="9" viewBox="0 0 32 9" fill="none" xmlns="http://www.w3.org/2000/svg">
<path d="M3.6957 8C5.19961 8 6.10293 7.24805 6.10293 6.00781C6.10293 5.08496 5.46816 4.41113 4.51602 4.30859V4.22559C5.20938 4.1084 5.75137 3.44922 5.75137 2.71191C5.75137 1.62793 4.95547 0.954102 3.63223 0.954102H0.800196V8H3.6957ZM1.89395 1.84766H3.37832C4.18887 1.84766 4.6625 2.2334 4.6625 2.90234C4.6625 3.59082 4.15957 3.95215 3.19277 3.95215H1.89395V1.84766ZM1.89395 7.10645V4.78711H3.4125C4.44277 4.78711 4.98477 5.17773 4.98477 5.93945C4.98477 6.70117 4.46231 7.10645 3.47598 7.10645H1.89395ZM12.4592 8H13.509V2.69727H12.4592V8ZM7.63988 8H9.73949C10.97 8 11.7561 7.29199 11.7561 6.16895C11.7561 5.05078 10.97 4.34277 9.73949 4.34277H8.68969V2.69727H7.63988V8ZM9.66137 5.17773C10.2961 5.17773 10.7112 5.56836 10.7112 6.16895C10.7112 6.76465 10.301 7.16016 9.66137 7.16016H8.68969V5.17773H9.66137ZM17.1944 8.09766C18.503 8.09766 19.3624 7.41895 19.3624 6.43262C19.3624 5.83691 19.0011 5.41211 18.2784 5.26562V5.18262C18.835 5.05566 19.1817 4.60156 19.1817 4.0498C19.1817 3.1709 18.4493 2.59473 17.2237 2.59473C15.9981 2.59473 15.2413 3.2002 15.129 4.11328H16.1446C16.2081 3.70312 16.6134 3.43945 17.1993 3.43945C17.8389 3.43945 18.1514 3.74707 18.1514 4.15723C18.1514 4.65039 17.8243 4.90918 17.1798 4.90918H16.3936V5.68066H17.1846C17.922 5.68066 18.3175 5.9248 18.3175 6.44727C18.3175 6.92578 17.8975 7.25293 17.1846 7.25293C16.5645 7.25293 16.1348 7.00391 16.0323 6.55957H14.9874C15.085 7.54102 15.9981 8.09766 17.1944 8.09766ZM23.082 8.10254C24.6347 8.10254 25.5868 7.0625 25.5868 5.34863C25.5868 3.63477 24.6298 2.59473 23.082 2.59473C21.5292 2.59473 20.5722 3.63965 20.5722 5.34863C20.5722 7.0625 21.5243 8.10254 23.082 8.10254ZM23.082 7.20898C22.1689 7.20898 21.6562 6.53027 21.6562 5.34863C21.6562 4.16699 22.1689 3.4834 23.082 3.4834C23.9902 3.4834 24.5077 4.16699 24.5077 5.34863C24.5077 6.52539 23.9902 7.20898 23.082 7.20898ZM29.5261 8C30.6931 8 31.3914 7.39453 31.3914 6.48145C31.3914 5.84668 30.9421 5.36816 30.2537 5.28516V5.20215C30.7761 5.10449 31.1521 4.61133 31.1521 4.06445C31.1521 3.23438 30.5418 2.69727 29.5017 2.69727H27.1043V8H29.5261ZM28.1443 3.47363H29.3015C29.8582 3.47363 30.1218 3.76172 30.1218 4.19141C30.1218 4.66504 29.8191 4.91895 29.1843 4.91895H28.1443V3.47363ZM28.1443 5.68066H29.2673C29.9705 5.68066 30.3318 5.92969 30.3318 6.44238C30.3318 6.93555 30.0095 7.21875 29.3992 7.21875H28.1443V5.68066Z" fill="white"/>
</svg>
